HIERARCHY
ROOT hip
{
  OFFSET 0 0 0
  CHANNELS 6 Xposition Yposition Zposition Zrotation Yrotation Xrotation
  JOINT abdomen
  {
    OFFSET 0 20.6881 -0.73152
    CHANNELS 3 Zrotation Xrotation Yrotation
    JOINT chest
    {
      OFFSET 0 11.7043 -0.48768
      CHANNELS 3 Zrotation Xrotation Yrotation
      JOINT neck
      {
        OFFSET 0 22.1894 -2.19456
        CHANNELS 3 Zrotation Xrotation Yrotation
        JOINT head
        {
          OFFSET -0.24384 7.07133 1.2192
          CHANNELS 3 Zrotation Xrotation Yrotation
          JOINT leftEye
          {
            OFFSET 4.14528 8.04674 8.04672
            CHANNELS 3 Zrotation Xrotation Yrotation
            End Site
            {
              OFFSET 1 0 0
            }
          }
          JOINT rightEye
          {
            OFFSET -3.6576 8.04674 8.04672
            CHANNELS 3 Zrotation Xrotation Yrotation
            End Site
            {
              OFFSET 1 0 0
            }
          }
        }
      }
      JOINT rCollar
      {
        OFFSET -2.68224 19.2634 -4.8768
        CHANNELS 3 Zrotation Xrotation Yrotation
        JOINT rShldr
        {
          OFFSET -8.77824 -1.95073 1.46304
          CHANNELS 3 Zrotation Xrotation Yrotation
          JOINT rForeArm
          {
            OFFSET -28.1742 -1.7115 0.48768
            CHANNELS 3 Zrotation Xrotation Yrotation
            JOINT rHand
            {
              OFFSET -22.5879 0.773209 7.07136
              CHANNELS 3 Zrotation Xrotation Yrotation
              JOINT rThumb1
              {
                OFFSET -1.2192 -0.487915 3.41376
                CHANNELS 3 Zrotation Xrotation Yrotation
                JOINT rThumb2
                {
                  OFFSET -3.37035 -0.52449 3.41376
                  CHANNELS 3 Zrotation Xrotation Yrotation
                  End Site
                  {
                    OFFSET -1.78271 -1.18214 1.43049
                  }
                }
              }
              JOINT rIndex1
              {
                OFFSET -7.75947 0.938293 5.60832
                CHANNELS 3 Zrotation Xrotation Yrotation
                JOINT rIndex2
                {
                  OFFSET -2.54057 -0.884171 1.56538
                  CHANNELS 3 Zrotation Xrotation Yrotation
                  End Site
                  {
                    OFFSET -1.62519 -0.234802 1.16502
                  }
                }
              }
              JOINT rMid1
              {
                OFFSET -8.24714 1.18213 3.41376
                CHANNELS 3 Zrotation Xrotation Yrotation
                JOINT rMid2
                {
                  OFFSET -3.10165 -0.590103 1.0647
                  CHANNELS 3 Zrotation Xrotation Yrotation
                  End Site
                  {
                    OFFSET -2.48547 -0.328903 0.83742
                  }
                }
              }
              JOINT rRing1
              {
                OFFSET -8.82822 0.546677 1.51678
                CHANNELS 3 Zrotation Xrotation Yrotation
                JOINT rRing2
                {
                  OFFSET -2.60934 -0.819778 -0.0198488
                  CHANNELS 3 Zrotation Xrotation Yrotation
                  End Site
                  {
                    OFFSET -2.33842 -0.294052 0.168128
                  }
                }
              }
              JOINT rPinky1
              {
                OFFSET -8.27202 -0.0477905 -0.4584
                CHANNELS 3 Zrotation Xrotation Yrotation
                JOINT rPinky2
                {
                  OFFSET -1.82734 -0.647385 -0.700984
                  CHANNELS 3 Zrotation Xrotation Yrotation
                  End Site
                  {
                    OFFSET -1.69225 -0.51767 -0.607171
                  }
                }
              }
            }
          }
        }
      }
      JOINT lCollar
      {
        OFFSET 2.68224 19.2634 -4.8768
        CHANNELS 3 Zrotation Xrotation Yrotation
        JOINT lShldr
        {
          OFFSET 8.77824 -1.95073 1.46304
          CHANNELS 3 Zrotation Xrotation Yrotation
          JOINT lForeArm
          {
            OFFSET 28.1742 -1.7115 0.48768
            CHANNELS 3 Zrotation Xrotation Yrotation
            JOINT lHand
            {
              OFFSET 22.5879 0.773209 7.07136
              CHANNELS 3 Zrotation Xrotation Yrotation
              JOINT lThumb1
              {
                OFFSET 1.2192 -0.487915 3.41376
                CHANNELS 3 Zrotation Xrotation Yrotation
                JOINT lThumb2
                {
                  OFFSET 3.37035 -0.52449 3.41376
                  CHANNELS 3 Zrotation Xrotation Yrotation
                  End Site
                  {
                    OFFSET 1.78271 -1.18214 1.43049
                  }
                }
              }
              JOINT lIndex1
              {
                OFFSET 7.75947 0.938293 5.60832
                CHANNELS 3 Zrotation Xrotation Yrotation
                JOINT lIndex2
                {
                  OFFSET 2.54057 -0.884171 1.56538
                  CHANNELS 3 Zrotation Xrotation Yrotation
                  End Site
                  {
                    OFFSET 1.62519 -0.234802 1.16502
                  }
                }
              }
              JOINT lMid1
              {
                OFFSET 8.24714 1.18213 3.41376
                CHANNELS 3 Zrotation Xrotation Yrotation
                JOINT lMid2
                {
                  OFFSET 3.10165 -0.590103 1.0647
                  CHANNELS 3 Zrotation Xrotation Yrotation
                  End Site
                  {
                    OFFSET 2.48547 -0.328903 0.83742
                  }
                }
              }
              JOINT lRing1
              {
                OFFSET 8.82822 0.546677 1.51678
                CHANNELS 3 Zrotation Xrotation Yrotation
                JOINT lRing2
                {
                  OFFSET 2.60934 -0.819778 -0.0198488
                  CHANNELS 3 Zrotation Xrotation Yrotation
                  End Site
                  {
                    OFFSET 2.33842 -0.294052 0.168128
                  }
                }
              }
              JOINT lPinky1
              {
                OFFSET 8.27202 -0.0477905 -0.4584
                CHANNELS 3 Zrotation Xrotation Yrotation
                JOINT lPinky2
                {
                  OFFSET 1.82734 -0.647385 -0.700984
                  CHANNELS 3 Zrotation Xrotation Yrotation
                  End Site
                  {
                    OFFSET 1.69225 -0.51767 -0.607171
                  }
                }
              }
            }
          }
        }
      }
    }
  }
  JOINT rButtock
  {
    OFFSET -8.77824 4.35084 1.2192
    CHANNELS 3 Zrotation Xrotation Yrotation
    JOINT rThigh
    {
      OFFSET 0 -1.70687 -2.19456
      CHANNELS 3 Zrotation Xrotation Yrotation
      JOINT rShin
      {
        OFFSET 0 -36.8199 0.73152
        CHANNELS 3 Zrotation Xrotation Yrotation
        JOINT rFoot
        {
          OFFSET 0.73152 -45.1104 -5.12064
          CHANNELS 3 Zrotation Xrotation Yrotation
          End Site
          {
            OFFSET -1.1221 -3.69964 12.103
          }
        }
      }
    }
  }
  JOINT lButtock
  {
    OFFSET 8.77824 4.35084 1.2192
    CHANNELS 3 Zrotation Xrotation Yrotation
    JOINT lThigh
    {
      OFFSET 0 -1.70687 -2.19456
      CHANNELS 3 Zrotation Xrotation Yrotation
      JOINT lShin
      {
        OFFSET 0 -36.8199 0.73152
        CHANNELS 3 Zrotation Xrotation Yrotation
        JOINT lFoot
        {
          OFFSET -0.73152 -45.1104 -5.12064
          CHANNELS 3 Zrotation Xrotation Yrotation
          End Site
          {
            OFFSET 1.1221 -3.69964 12.103
          }
        }
      }
    }
  }
}
MOTION
Frames:	4
Frame Time:	0.03333
-4.419228807091713 50.566208362579346 21.299597597680986 -17.994982019402965 -30.679099223243743 13.652495447949661 12.761014888611365 9.228649370650457 4.088657105101768 1.9523116037222374 -7.549842660401036 1.4140648427600238 0.7204580653281711 11.78529162982378 8.119534224919812 3.491827278019826 -21.050000984197318 16.467043088861725 0.05114501679401083 -0.12426563363400878 0.047407689358610595 0.05525868498463613 -0.11133395110105902 -0.03447602016587405 0.15004544894449467 -0.08148522401530993 0.1517026769527219 107.23588925235697 46.567324761081906 -57.301393928580076 -26.806902765770726 -44.749179630443294 92.95268645248551 -4.290357287047299 -50.7222790973624 -9.463505425261344 -0.09710575992542331 -0.06895038614530849 0.22209939567542025 -0.030362858903351213 -0.170738027303364 -0.0722841054296565 -0.15103672016843242 0.22145735789343907 0.11023103563266062 7.728275376052095 5.451924870509055 0.22447694183681938 -0.023541634356624104 -0.038932158310352016 -0.07506884825946475 2.919040570589975 1.0062029779587685 0.06490339234037015 -0.06727352134321747 0.10725488742353335 -0.08974057484432815 10.42199099413111 0.6378279308532377 0.10689056620042194 -0.13589034879710604 0.1504110108074358 -0.07171241059199851 2.1274690302228643 -0.675048192961576 -0.16358060270299885 -0.036488364650089054 -0.039986115196223165 0.01605702768675951 -45.266122497775704 13.635168965572632 -38.019332769527196 13.037926125489316 -6.046556017008488 -23.010454813740445 2.592440134387006 42.27948226430964 -7.565815057775111 0.10791154607920661 0.15230964331414068 0.14518596945322892 0.030788038179184508 -0.07681673635675333 0.04011700936836411 0.040643467542984 -0.09135503412896348 0.08174044897468627 -7.699155718299392 5.374885459313188 -0.37597816822966557 0.002631597182011866 0.046140275720963325 -0.1390357042707498 -2.9070713043997625 1.0375038139342327 -0.1543986406635332 -0.10752254546163323 -0.048298828942098915 -0.1266480089525945 -10.302182645899917 0.550388596150675 -0.04843916798520152 0.025873476947522324 -0.005403800211390791 -0.12538413047145125 -2.065742689702755 -0.5531952702910213 0.07708876998479024 0.0013359956738250723 0.005208873015780974 -0.08110073238980582 -12.572443610911069 9.796746085998036 -2.270581130128495 0.5566686882882372 32.5369823944735 1.6443963239326018 -7.731640951765619 -17.97274633855999 -29.664997131509857 0.10336685559935649 -0.06720599318388425 0.16986947270086164 83.66815759668789 -50.27517491429337 71.41627354654574 5.193728778843764 78.84144732534746 -4.993427505017616 -1.0660769498316292 -1.407932933710939 -8.327551904960783
-4.132983647286892 50.62035918235779 21.388787543401122 -18.040378871721455 -30.663546882503624 13.633546795644753 12.865640580091267 9.232512696399745 4.0412645568851655 1.9547316251225377 -7.5459707969152845 1.3942269852025448 0.7141138868062871 11.821112556925911 8.136450042172996 3.5309625544167065 -21.167941275690513 16.514191884702324 0.047187482458943796 -0.13133125088697542 0.046410108213818496 0.057304753527878075 -0.11737226521417342 -0.02931786664076571 0.15287002565098584 -0.08038268207288178 0.14837365342342826 107.31133552192892 46.616225500444614 -57.44448639169184 -26.800624114376195 -44.74248604505668 92.964236302372 -4.303956193684794 -50.73179355087623 -9.485348370227046 -0.09469849176896405 -0.0634999485484912 0.2243462077472371 -0.029200125918862323 -0.17080707624700459 -0.07031845169172088 -0.15069478382310866 0.21817481166701325 0.1099723422178464 7.723832337997002 5.452826028592673 0.22017765791941368 -0.019475110479527765 -0.04924809183459846 -0.07834872644324603 2.919655287615276 0.9980470917595385 0.06166561586951965 -0.06781417350470628 0.10662416214236499 -0.09041783078921724 10.425889324599897 0.6398704775801889 0.10479532563124118 -0.13695441756459997 0.15319666077174318 -0.07400602013180052 2.127726442977209 -0.6797306078027371 -0.1670298482338553 -0.03465104376335563 -0.04061395899133543 0.02130773561120681 -45.314323142748485 13.654037363154792 -38.07185009405543 13.027890870051273 -6.019832901880813 -22.954175762526834 2.61357060524491 42.347814891861034 -7.580218219187375 0.10371055285282564 0.1535585007151952 0.13874894304731503 0.023377282929720675 -0.08593912100396649 0.038541370104206794 0.04056790857529073 -0.09227054628200963 0.0837498052511394 -7.699106199427909 5.374020586609536 -0.37945126606176416 0.0010940575668185269 0.043930229276788184 -0.13641408556822848 -2.9005506081765158 1.0426122618248734 -0.15070783055164044 -0.11251066462900527 -0.04492439532699528 -0.12313974631844093 -10.302397796858774 0.5519040977336245 -0.04647623565076333 0.025024612499736677 -0.002476157017541185 -0.12499865167016867 -2.058703966319645 -0.5538815975809018 0.0776229121222264 -0.002971612536631563 0.004763843502672331 -0.08306969450062067 -12.534990268597303 9.847511467004155 -2.2943595799502483 0.5510732692541159 32.5424943571337 1.6312110706267153 -7.718702012156676 -17.91470168344593 -29.677178773894575 0.09777554535090768 -0.06892023726342522 0.16940427278536033 83.80524632351921 -50.304817935291226 71.47311438081859 5.20618875143716 78.8401632497835 -5.000989805089289 -1.1096315720649195 -1.3775213029880458 -8.557999926236073
-3.846622724086046 50.67220330238342 21.47195760626346 -18.08515246927818 -30.652181447724722 13.61093460062378 12.967582861001 9.239213965749173 3.9930711689883784 1.957148658315076 -7.540848155037775 1.3740275545058784 0.7069818886523244 11.858210729402835 8.148764019472882 3.5709095561077606 -21.27987441580868 16.551088566598732 0.04342959775496741 -0.13800957506966116 0.0454366995353859 0.05927910508483489 -0.1231356642131948 -0.02457349984939849 0.1556833165370906 -0.0792291271550901 0.14471240522403697 107.39168586732495 46.667602183381454 -57.591649647548934 -26.796292066895113 -44.735109440753064 92.97898268079005 -4.3209881241538675 -50.743029212060904 -9.510396381460774 -0.09223012543594492 -0.05817080017029454 0.22652727924829258 -0.027963167988002437 -0.17015127136497757 -0.06928533221890357 -0.1504927596340644 0.21453442756110222 0.10996348431626654 7.719053766898932 5.453785243284237 0.21606364288324462 -0.01527443741826414 -0.05876147813136841 -0.08100300198773645 2.9202791827072745 0.9898733830354431 0.05863738746797103 -0.06820360100910279 0.10569995217029764 -0.09109295229999068 10.430479211722144 0.642347168206259 0.10287217381263303 -0.13818897425707977 0.15604292866493444 -0.0760196452764849 2.1283648522211935 -0.6838716234304689 -0.16999073523905583 -0.03331771613217509 -0.03992186872934273 0.02638438043352457 -45.36469920297191 13.676249138335672 -38.12530656959453 13.01507060497916 -5.998957709343138 -22.903268655095435 2.6243629444637646 42.403095027908535 -7.582054686300462 0.09912194639104645 0.154944922395002 0.13277882410419498 0.016321270630274377 -0.09449881545744697 0.03697843072303747 0.040129709251352105 -0.09295340511645224 0.08586727061554913 -7.699946312695821 5.372995204460388 -0.3829806062328096 -0.0007855251154043571 0.041983305198217205 -0.13333996683319385 -2.894238659609778 1.0473234915265954 -0.1465338379168222 -0.11727258714097354 -0.04120012796034004 -0.11968319035073847 -10.302554891209683 0.5532273401636086 -0.044617250257756265 0.023975217966787688 0.0002950321556328164 -0.12459780494325354 -2.051725860865419 -0.5540203357984177 0.07838330427591922 -0.0072087844212724425 0.004584337593547933 -0.08499471394908 -12.496544841306594 9.894574885480129 -2.3155562182657365 0.5469854010358632 32.55352852773785 1.6214041996390465 -7.709778370006054 -17.853142896003895 -29.69636477527314 0.092394156697731 -0.06978505660622521 0.16884184939589209 83.9360102951791 -50.33737403197009 71.52491453548396 5.212971556169805 78.83079223024225 -5.0052988006819215 -1.15178365764083 -1.3372660890106947 -8.789163409826925
-3.5601827315986156 50.71994662284851 21.55119115486741 -18.128805915811025 -30.642345975319905 13.587263726281455 13.06571048125928 9.246624720998637 3.943540344674738 1.959415427345874 -7.534025649830578 1.3532465972344088 0.6991056133222419 11.896323184971505 8.155565180338924 3.6112806698575906 -21.386312668739574 16.576322700487346 0.03994588111314356 -0.14416528305913515 0.04449936279350743 0.061210020907538645 -0.12866267463391026 -0.020301510008246416 0.1585169645885732 -0.07805177329690915 0.14084774545342624 107.4745155713897 46.720102432436754 -57.742098224396806 -26.79296234967473 -44.72715227037 92.99578494614829 -4.34045501706205 -50.754729326109135 -9.537423440006515 -0.08983545044076786 -0.053130067201972234 0.22860925964552997 -0.026693926741143664 -0.16891980960196543 -0.06916420308284162 -0.15037461870576432 0.21054879873698823 0.11009742005702225 7.713976375024673 5.454612123060632 0.212135430336841 -0.011013359871528216 -0.06742141094700412 -0.08302900685029149 2.9208749032689467 0.9820819514614568 0.05592457506785948 -0.06828764435240568 0.1043602745976231 -0.09178312157127931 10.435262051688445 0.645187673127338 0.10121724032108009 -0.1395028251769552 0.15876614643135967 -0.07773898531747694 2.129441460789117 -0.6874258831198142 -0.1723995508602489 -0.03241223581947238 -0.03806800597821318 0.031209909082138578 -45.416260301016344 13.702194465671612 -38.17874255456612 12.999811962373352 -5.984206635170026 -22.857772765033978 2.6247644315209144 42.444062502550274 -7.573292407368982 0.09422656838599848 0.15651768017310322 0.1272680353827583 0.00970793996640953 -0.10227010330946698 0.03554334394539432 0.03950709481982313 -0.09337138067714529 0.08795154552946083 -7.701653006214678 5.371761074654731 -0.3864665907108813 -0.002925508759733977 0.04040238320962371 -0.1300230562175064 -2.888093196904059 1.0516366492657527 -0.1419993393598742 -0.12157165761496766 -0.03713488474371308 -0.1162272213524178 -10.302336325156244 0.5542543231383436 -0.04290052489855587 0.022685486152418874 0.002829832750500908 -0.12430314631359096 -2.044925126886202 -0.5536749843585089 0.07932394939067691 -0.011384271159971643 0.004500561054509496 -0.08695890026356112 -12.455888140272094 9.938825973565349 -2.3353383670927976 0.5451422104553119 32.567445038171755 1.6147157368943115 -7.704829044178734 -17.78949407067584 -29.721943833714835 0.08728827012802913 -0.06997299353010633 0.1680921294127774 84.06039487015421 -50.372498279776885 71.57261657664732 5.2134996151700115 78.81262392705001 -5.006143609704887 -1.1929289306443984 -1.288455316045962 -9.02066925664992
